<svg width="38" height="36" viewBox="0 0 38 36" fill="none" xmlns="http://www.w3.org/2000/svg">
<path d="M33.3203 17.3197H27.9891V6.65718C27.9879 6.43766 27.9326 6.22181 27.828 6.02882C27.7233 5.83584 27.5726 5.67168 27.3893 5.55094L19.3924 0.219695C19.1748 0.0763806 18.9199 0 18.6594 0C18.3988 0 18.1439 0.0763806 17.9263 0.219695L9.92945 5.55094C9.74611 5.67168 9.59543 5.83584 9.4908 6.02882C9.38616 6.22181 9.33082 6.43766 9.32969 6.65718V17.3197H3.99844C2.93799 17.3197 1.92097 17.7409 1.17112 18.4908C0.421263 19.2406 0 20.2577 0 21.3181V34.6462C0 34.9997 0.140421 35.3387 0.390372 35.5887C0.640322 35.8386 0.979329 35.9791 1.33281 35.9791H35.9859C36.3394 35.9791 36.6784 35.8386 36.9284 35.5887C37.1783 35.3387 37.3188 34.9997 37.3188 34.6462V21.3181C37.3188 20.2577 36.8975 19.2406 36.1476 18.4908C35.3978 17.7409 34.3808 17.3197 33.3203 17.3197ZM2.66562 21.3181C2.66562 20.9646 2.80605 20.6256 3.056 20.3757C3.30595 20.1257 3.64495 19.9853 3.99844 19.9853H9.32969V33.3134H2.66562V21.3181ZM11.9953 18.6525V7.32359L18.6594 2.9253L25.3234 7.32359V33.3134H22.6578V21.3181C22.6578 20.9646 22.5174 20.6256 22.2674 20.3757C22.0175 20.1257 21.6785 19.9853 21.325 19.9853H15.9937C15.6403 19.9853 15.3013 20.1257 15.0513 20.3757C14.8014 20.6256 14.6609 20.9646 14.6609 21.3181V33.3134H11.9953V18.6525ZM17.3266 33.3134V22.6509H19.9922V33.3134H17.3266ZM34.6531 33.3134H27.9891V19.9853H33.3203C33.6738 19.9853 34.0128 20.1257 34.2628 20.3757C34.5127 20.6256 34.6531 20.9646 34.6531 21.3181V33.3134Z" fill="#E9ECEF"/>
</svg>
